<svg xmlns="http://www.w3.org/2000/svg" viewBox="0 0 1024 1024" width="1024" height="1024">
  <defs>
    <linearGradient id="bg" x1="0" y1="0" x2="1" y2="1">
      <stop offset="0" stop-color="hsl(214 60% 22%)"/>
      <stop offset="0.5" stop-color="hsl(200 62% 40%)"/>
      <stop offset="1" stop-color="hsl(22 85% 52%)"/>
    </linearGradient>
    <linearGradient id="merc" x1="0" y1="1" x2="0" y2="0">
      <stop offset="0" stop-color="#9fe3ff"/><stop offset="0.5" stop-color="#3aa7ff"/><stop offset="1" stop-color="#ff8a5b"/>
    </linearGradient>
    <radialGradient id="glow" cx="0.5" cy="0.5" r="0.5">
      <stop offset="0" stop-color="#ffffff" stop-opacity="0.35"/><stop offset="1" stop-color="#ffffff" stop-opacity="0"/>
    </radialGradient>
  </defs>
  <rect width="1024" height="1024" fill="url(#bg)"/>
  <circle cx="560" cy="560" r="420" fill="url(#glow)"/>

  <!-- thermometer -->
  <rect x="150" y="190" width="92" height="640" rx="46" fill="rgba(0,0,0,0.38)"/>
  <rect x="172" y="300" width="48" height="470" rx="24" fill="url(#merc)"/>
  <circle cx="196" cy="790" r="66" fill="#ff8a5b"/>
  <circle cx="176" cy="770" r="16" fill="rgba(255,255,255,0.55)"/>
  <rect x="140" y="420" width="112" height="10" rx="5" fill="rgba(255,255,255,0.75)"/>
  <rect x="140" y="580" width="112" height="10" rx="5" fill="rgba(255,255,255,0.75)"/>

  <!-- drop -->
  <path d="M 560 226.5
  C 606 353, 790 445, 790 594.5
  A 230 230 0 1 1 330 594.5
  C 330 445, 514 353, 560 226.5 Z" fill="#1f7fd6" transform="translate(0,16)"/>
  <path d="M 560 226.5
  C 606 353, 790 445, 790 594.5
  A 230 230 0 1 1 330 594.5
  C 330 445, 514 353, 560 226.5 Z" fill="#3aa7ff" transform="translate(560 560) scale(0.9) translate(-560 -560)"/>
  <ellipse cx="463.4" cy="548.5" rx="38" ry="70" transform="rotate(-20 463.4 548.5)" fill="rgba(255,255,255,0.75)"/>

  <!-- face -->
  <ellipse cx="520" cy="550" rx="46" ry="52" fill="#fff"/>
  <ellipse cx="680" cy="550" rx="46" ry="52" fill="#fff"/>
  <circle cx="538" cy="554" r="24" fill="#1b2a44"/>
  <circle cx="698" cy="554" r="24" fill="#1b2a44"/>
  <circle cx="546" cy="544" r="8" fill="#fff"/>
  <circle cx="706" cy="544" r="8" fill="#fff"/>
  <path d="M 570 640 Q 610 685 650 640" stroke="#1b2a44" stroke-width="16" stroke-linecap="round" fill="none"/>

  <!-- steam wisps -->
  <g fill="#ffffff" opacity="0.9">
    <circle cx="820" cy="250" r="34"/><circle cx="868" cy="228" r="44"/><circle cx="915" cy="252" r="30"/>
    <circle cx="760" cy="150" r="22"/><circle cx="795" cy="135" r="28"/><circle cx="828" cy="152" r="20"/>
  </g>
  <!-- ice cube -->
  <rect x="690" y="760" width="150" height="150" rx="26" fill="#6fc3e6"/>
  <rect x="704" y="774" width="122" height="122" rx="20" fill="#bdf0ff"/>
  <rect x="716" y="786" width="40" height="40" rx="10" fill="rgba(255,255,255,0.7)"/>
</svg>
