<svg xmlns="http://www.w3.org/2000/svg" viewBox="0 0 1024 1024" width="1024" height="1024">
  <defs><linearGradient id="bg" x1="0" y1="0" x2="0" y2="1"><stop offset="0" stop-color="hsl(340 45% 16%)"/><stop offset="1" stop-color="hsl(20 50% 26%)"/></linearGradient></defs>
  <rect width="1024" height="1024" fill="url(#bg)"/>
  <circle cx="300" cy="700" r="150" fill="hsl(200 85% 65% / 0.55)" stroke="hsl(200 90% 85%)" stroke-width="13.5"/><ellipse cx="243" cy="637" rx="33" ry="19.5" transform="rotate(-40 243 637)" fill="rgba(255,255,255,.9)"/><circle cx="720" cy="640" r="120" fill="hsl(150 85% 65% / 0.55)" stroke="hsl(150 90% 85%)" stroke-width="10.799999999999999"/><ellipse cx="674.4" cy="589.6" rx="26.4" ry="15.600000000000001" transform="rotate(-40 674.4 589.6)" fill="rgba(255,255,255,.9)"/><circle cx="560" cy="360" r="230" fill="hsl(340 85% 65% / 0.55)" stroke="hsl(340 90% 85%)" stroke-width="20.7"/><ellipse cx="472.6" cy="263.4" rx="50.6" ry="29.900000000000002" transform="rotate(-40 472.6 263.4)" fill="rgba(255,255,255,.9)"/><circle cx="250" cy="300" r="110" fill="hsl(42 85% 65% / 0.55)" stroke="hsl(42 90% 85%)" stroke-width="9.9"/><ellipse cx="208.2" cy="253.8" rx="24.2" ry="14.3" transform="rotate(-40 208.2 253.8)" fill="rgba(255,255,255,.9)"/><circle cx="800" cy="260" r="90" fill="hsl(270 85% 65% / 0.55)" stroke="hsl(270 90% 85%)" stroke-width="8.1"/><ellipse cx="765.8" cy="222.2" rx="19.8" ry="11.700000000000001" transform="rotate(-40 765.8 222.2)" fill="rgba(255,255,255,.9)"/>
  <g stroke="#fff" stroke-width="22" stroke-linecap="round" opacity=".9"><path d="M560 60 L560 130"/><path d="M820 160 L870 110"/><path d="M300 110 L250 70"/></g>
</svg>